<?xml version="1.0" standalone="no"?>
<!DOCTYPE svg PUBLIC "-//W3C//DTD SVG 1.1//EN" "http://www.w3.org/Graphics/SVG/1.1/DTD/svg11.dtd" >
<svg xmlns="http://www.w3.org/2000/svg">
<metadata>
This is a custom SVG font generated by IcoMoon.
<iconset grid="16"></iconset>
</metadata>
<defs>
<font id="Tori-Icons" horiz-adv-x="512" >
<font-face units-per-em="512" ascent="480" descent="-32" />
<missing-glyph horiz-adv-x="512" />
<glyph unicode="&#xe000;" d="M 40.80,440.20 c-9.70-9.80 -17.80-18.30 -18.00-18.80 -0.20-0.60 96.80-98.10 215.50-216.80
l 215.70-215.80 18.60,18.60 18.60,18.50 -216.00,216.10 c-118.90,118.80 -216.20,216.00 -216.40,216.00 -0.20,0.00 -8.30-8.10 -18.00-17.80zM 325.50,424.90 c-13.30-1.80 -20.30-9.20 -21.10-22.30 -0.70-11.60 -1.30-18.10 -2.00-22.90
-0.70-4.60 -1.40-5.40 -33.10-37.10 l-32.40-32.40 51.70-51.70 51.70-51.70 31.60,31.50 31.60,31.40 7.50,1.20
c 4.10,0.60 12.40,1.30 18.30,1.60 9.40,0.40 11.40,0.80 15.90,3.20 5.90,3.20 9.30,8.10 10.90,15.40 4.80,22.10 -14.80,60.20
-46.50,90.80 -9.00,8.70 -8.10,7.90 -16.10,14.30 -19.60,15.60 -41.50,26.60 -57.00,28.40 -2.70,0.40 -5.20,0.70 -5.50,0.80 -0.30,0.10 -2.70-0.10 -5.50-0.50zM 124.00,281.50 c-3.90-19.00 3.10-44.30 20.30-73.00 5.70-9.60 16.70-25.00 22.50-31.70 23.10-26.90 46.70-47.40 71.40-62.10 30.30-18.10 55.50-24.50 75.90-19.20 2.40,0.60 -3.90,7.20 -92.80,96.10 -52.50,52.50 -95.60,95.40 -95.80,95.40 -0.20,0.00 -0.90-2.50 -1.50-5.50zM 120.60,121.20 c-13.70-20.70 -33.40-50.40 -43.70-66.00 -10.40-15.50 -18.10-27.80 -17.10-27.30 1.50,0.80 28.00,18.50 108.00,72.10 l 23.00,15.40 -3.60,3.10 c-11.30,9.40 -27.00,24.90 -36.00,35.50 -2.40,2.70 -4.60,5.00 -5.00,5.00 -0.40,0.00 -11.90-17.00 -25.60-37.80z"  />
<glyph unicode="&#xe001;" d="M 137.60,438.30 c-25.90-3.80 -49.40-16.20 -67.50-35.70 -2.00-2.10 -4.10-4.40 -4.80-5.10
-0.60-0.70 -3.60-4.80 -6.60-9.30 -11.70-17.00 -18.80-36.70 -21.30-58.60 -0.40-3.30 -0.70-30.80 -0.70-61.00
l0.00-55.10 30.40,0.00 30.40,0.00 0.10,6.60 0.00,6.60 -17.30,17.30 c-9.50,9.60 -17.10,17.50 -16.90,17.80 0.30,0.20 8.10,0.40
17.40,0.40 l 16.90,0.00 -0.10,28.10 c0.00,31.70 0.50,38.90 3.30,47.00 2.20,6.20 6.30,14.80 8.30,17.30 12.80,15.80 25.70,23.10
41.80,23.80 6.60,0.20 9.30,0.00 17.00-1.80 9.40-2.20 23.10-12.50 30.00-22.60 3.80-5.60 8.60-16.10 9.50-21.00 0.30-1.40 0.80-4.10 1.20-6.00 0.60-3.60 1.10-82.90 0.50-86.50 -0.30-1.90 -1.10-2.00 -15.00-2.00 -17.50-0.10 -20.70-1.10 -24.90-8.30 l-2.70-4.50 0.00-101.20 0.00-101.30 2.80-4.20 c 1.70-2.60 4.30-4.90 6.90-6.10 4.10-1.80
8.80-1.90 144.80-1.90 151.80,0.00 144.60-0.30 149.50,5.20 5.00,5.50 4.80,0.60 4.90,107.80 0.10,92.70 0.00,100.80 -1.60,104.60 -1.70,4.20 -5.30,7.40 -9.90,9.00 -1.40,0.40 -45.20,0.90 -97.50,1.00 -52.20,0.10 -95.20,0.20 -95.50,0.30 -0.30,0.10 -0.60,18.70 -0.60,41.40 -0.10,42.10 -0.50,53.60 -2.30,60.40 -0.60,2.10 -1.30,5.30 -1.60,7.10 -1.50,9.10 -9.30,27.00 -16.20,37.60 -8.50,13.00 -17.20,22.40 -29.30,31.50 -23.90,17.90 -54.30,25.70 -83.40,21.40z"  />
<glyph unicode="&#xe002;" d="M 40.00,439.50 l-18.50-18.50 216.30-216.30 216.20-216.20 18.70,18.80 18.80,18.70 -216.00,216.00 c-118.80,118.80 -216.20,216.00 -216.50,216.00 -0.30,0.00 -8.80-8.30 -19.00-18.50zM 245.50,302.00 c 36.80-36.80 67.30-67.00 67.60-67.00 0.60,0.00 151.70,127.50 155.90,131.60 l 2.50,2.40 -146.50,0.00 -146.50,0.00 67.00-67.00zM 38.00,217.10 l0.00-123.10 140.20,0.00 140.30,0.00 -30.40,30.40 c-16.70,16.70 -30.90,30.30 -31.60,30.20 -0.70,0.00 -48.60,40.50 -106.60,90.00 -58.00,49.60 -106.90,91.40 -108.60,92.90 l-3.30,2.70 0.00-123.10zM 402.50,277.30 l-71.70-60.60 61.40-61.40 61.30-61.30 10.70,0.00 10.80,0.00 0.00,122.00 c0.00,67.10
-0.20,122.00 -0.40,122.00 -0.20,0.00 -32.60-27.30 -72.10-60.70z"  />
<glyph unicode="&#xe003;" d="M 248.70,443.40 c-0.10-0.10 -4.50-0.40 -9.70-0.70 -17.90-1.10 -38.10-5.30 -56.50-11.70 -10.40-3.60 -12.60-4.60 -25.80-11.10 -24.30-12.20 -49.20-31.40 -65.70-50.90 -2.50-2.80 -5.50-6.40 -6.80-7.90 -1.20-1.40 -3.50-4.40 -5.00-6.60 -1.50-2.20 -3.00-4.20 -3.30-4.50 -3.00-2.50 -15.90-25.80 -21.90-39.40 -4.20-9.40 -10.40-28.50 -11.40-35.10 -0.40-2.00 -0.80-4.00 -1.00-4.40 -0.30-0.30 -0.70-2.60 -1.10-5.10
-0.40-2.50 -0.80-4.70 -1.00-5.00 -0.30-0.50 -1.10-7.00 -2.40-19.60 -0.80-8.00 -0.60-27.50 0.30-37.40 3.40-36.10
16.10-71.10 36.60-101.50 11.80-17.30 23.20-30.30 38.50-43.30 9.60-8.20 25.90-19.90 33.50-24.00 27.80-15.20 53.10-23.70 82.50-27.70 14.60-2.10 49.70-1.00 65.30,1.90 27.30,5.20 55.40,16.00 77.60,30.00 18.50,11.70 39.40,30.20 53.60,47.30 20.70,25.10 40.60,67.50 44.50,94.60 0.30,2.30 1.00,5.80 1.50,7.70 3.10,11.90 3.40,54.10
0.50,69.00 -0.30,1.40 -1.00,5.20 -1.60,8.50 -5.20,28.90 -18.90,60.60 -37.20,86.00 -37.20,51.70 -95.60,84.80 -158.70,90.10 -6.50,0.50 -24.90,1.10 -25.30,0.80z m 26.90-66.70 c 0.50-0.30 3.00-0.80 5.40-1.20 11.20-1.60 29.00-7.50 41.30-13.60 8.60-4.40 22.00-12.70 22.50-14.00 0.20-0.50 0.80-0.90 1.30-0.90 1.20,0.00 5.40-3.60 15.20-13.00 7.80-7.40
19.00-21.30 24.10-30.00 23.60-39.70 28.40-87.00 13.40-130.00 -3.30-9.30 -11.80-26.60 -15.20-30.80
-1.20-1.50 -4.40-5.80 -7.10-9.70 -5.00-7.10 -20.10-22.90 -26.40-27.50 -1.80-1.40 -4.20-3.30 -5.20-4.20
-1.10-1.00 -2.10-1.80 -2.30-1.80 -0.20,0.00 -3.30-2.00 -6.90-4.40 -31.60-21.20 -75.30-28.50 -116.70-19.50
-19.00,4.10 -50.30,19.40 -60.40,29.40 -0.80,0.80 -1.80,1.50 -2.20,1.50 -1.20,0.00 -23.40,23.20 -23.40,24.50 0.00,0.70 -0.30,1.50 -0.70,1.70 -1.30,0.50 -6.30,7.60 -6.30,8.70 0.00,0.60 -0.40,1.10 -0.90,1.10 -1.40,0.00 -13.80,25.80 -16.50,34.50 -5.70,18.00 -7.10,27.90 -7.10,48.00 0.10,13.30 0.70,21.90 2.00,26.50 0.20,0.80 0.70,3.10 1.00,5.00 0.30,1.90 1.10,5.30 1.70,7.50 0.60,2.20
1.20,4.20 1.30,4.50 0.50,2.60 4.40,12.70 6.60,17.80 1.60,3.40 2.90,6.40 2.90,6.70 0.00,0.70 11.20,19.00 12.00,19.50 0.40,0.30 0.90,1.00 1.10,1.60 1.50,4.30 21.40,24.80 30.40,31.40 3.30,2.40 6.20,4.70 6.50,5.10 1.20,1.60 23.10,13.10 30.50,16.00 21.40,8.20 35.90,10.70 60.10,10.40 9.40-0.10 17.50-0.50 18.00-0.80z"  />
<glyph unicode="&#xe004;" d="M 325.50,424.90 c-12.90-1.70 -20.20-9.10 -21.10-21.30 -0.20-2.80 -0.60-8.20 -0.80-12.10 -1.20-17.20 2.20-12.50 -35.40-50.00 l-33.50-33.60 -6.10-1.40 c-3.40-0.80 -7.90-1.70 -10.00-2.10 -2.10-0.30
-4.80-0.80 -6.00-1.00 -1.10-0.20 -7.70-0.70 -14.60-1.00 -9.80-0.50 -13.80-0.20 -18.80,1.00 -11.70,3.10 -21.60,3.80 -29.70,2.10 -11.80-2.50 -18.20-7.30 -23.30-17.50 -2.30-4.80 -2.70-6.90 -2.90-16.00 -0.30-14.70 3.00-27.80 11.40-45.90 6.80-14.40 21.70-37.30 32.10-49.30 8.60-10.00 11.60-13.30 21.20-22.70 51.30-50.60
111.70-73.80 136.80-52.70 4.10,3.50 8.00,10.10 9.70,16.50 1.30,5.00 1.30,21.00 0.00,25.20 -0.80,2.60 -0.90,29.80 -0.10,34.40 0.20,1.70 0.80,5.50 1.10,8.50 0.40,3.00 1.50,8.80 2.60,13.00 l 1.90,7.50 31.80,31.60 31.70,31.60 7.50,1.20 c 4.10,0.60
12.40,1.30 18.30,1.60 9.40,0.40 11.40,0.80 15.90,3.20 24.80,13.50 7.90,64.30 -35.60,106.20 -9.00,8.70 -8.10,7.90 -16.10,14.30 -19.40,15.50 -41.70,26.60 -57.00,28.40 -2.70,0.40 -5.20,0.70 -5.50,0.80 -0.30,0.10 -2.70-0.10 -5.50-0.50zM 120.90,121.70 c-13.90-21.00 -33.70-50.90 -44.10-66.50 -10.30-15.50 -18.00-27.80 -17.00-27.30 1.50,0.80 30.80,20.40 108.00,72.10 l 23.00,15.40 -3.60,3.10 c-11.70,9.80 -26.70,24.60 -35.70,35.20 l-5.30,6.10 -25.30-38.10z"  />
<glyph unicode="&#xe005;" d="M 366.00,440.90 c-32.80-5.80 -60.80-30.00 -70.60-60.90 -4.50-14.10 -5.70-32.90 -3.00-46.00 l 1.60-7.50 -69.80-69.80 c-62.50-62.50 -70.00-69.70 -72.20-69.20 -18.30,4.30 -38.90,3.00 -56.00-3.70 -11.80-4.70 -26.90-15.30 -34.10-23.90 -1.90-2.20 -3.90-4.60 -4.60-5.30 -3.60-4.00 -12.80-20.70
-13.80-25.30 -0.20-1.00 -0.90-3.40 -1.50-5.30 -3.80-12.10 -4.60-31.50 -1.70-43.80 l 1.20-5.30 25.90,25.90
25.80,25.80 12.70-3.30 c 6.90-1.90 18.20-4.90 24.90-6.60 7.00-1.90 12.70-3.90 13.20-4.70 0.70-1.40 5.40-18.10 11.40-41.20 l 2.30-8.60 -25.90-25.90 -25.80-25.80 5.20-1.30 c 6.30-1.50 24.80-2.20 29.80-1.10 1.90,0.40 5.10,0.90 7.00,1.20 5.80,0.70 19.10,5.60 25.50,9.30 11.20,6.40 12.80,7.70 21.60,16.60 10.90,11.00 17.80,22.70 22.50,38.30 2.50,8.20 2.80,10.50 2.80,25.00 0.10,12.50 -0.30,17.40 -1.70,22.40 l-1.80,6.50 68.30,68.30 68.30,68.30 9.50-2.00
c 8.50-1.80 27.70-2.90 29.80-1.70 0.40,0.30 3.00,0.70 5.90,1.10 6.80,0.80 20.50,5.70 28.40,10.20 34.00,19.10 52.10,58.60
44.80,97.30 l-1.20,6.30 -26.10-26.00 c-23.90-23.80 -26.30-25.90 -28.60-25.20 -1.40,0.40 -7.90,2.20 -14.50,3.90 -6.60,1.70 -13.40,3.60 -15.20,4.20 -1.80,0.50 -4.10,1.20 -5.20,1.40 -4.10,0.80 -14.10,3.80 -13.80,4.10 0.20,0.20 -2.60,11.50 -6.30,25.10 l-6.70,24.80 25.90,26.00 c 24.60,24.70 25.70,26.00 23.20,26.70 -9.80,2.60 -25.20,2.90 -37.40,0.70z"  />
<glyph unicode="&#xe006;" d="M 90.00,333.80 l0.00-33.30 144.30,0.20 c 79.30,0.10 154.10,0.30 166.20,0.30 l 22.00,0.00 0.00,33.00 0.00,33.00
-166.20,0.00 -166.30,0.00 0.00-33.20zM 236.40,268.00 c-10.90-13.80 -21.80-27.70 -24.20-30.80 -2.40-3.10 -5.10-6.60 -6.00-7.70
-2.30-2.70 -99.70-126.10 -109.00-138.10 -4.00-5.20 -7.20-9.50 -7.00-9.50 0.90-0.30 329.60-0.40 331.00-0.10
1.40,0.40 1.10,1.20 -2.00,5.10 -2.10,2.50 -6.50,8.00 -9.80,12.10 -3.20,4.10 -6.40,8.10 -7.10,9.00 -2.80,3.50 -49.90,63.20 -66.60,84.50 -10.00,12.70 -23.10,29.30 -29.20,37.00 -6.10,7.70 -18.70,23.70 -28.00,35.50 -9.40,11.80
-17.50,22.20 -18.20,23.00 -0.70,0.80 -1.90,2.30 -2.60,3.40 -1.20,1.70 -3.10-0.40 -21.30-23.40z"  />
<glyph unicode="&#xe007;" d="M 216.70,416.50 c-7.60-6.20 -15.40-12.70 -17.40-14.40 -2.00-1.70 -5.50-4.60 -7.70-6.40
-2.20-1.70 -9.40-7.70 -16.00-13.20 -19.80-16.30 -41.80-34.50 -46.50-38.40 -2.50-2.00 -5.60-4.60 -7.00-5.80 -5.20-4.30 -11.90-9.90 -16.20-13.40 -2.40-2.00 -9.10-7.60 -14.90-12.40 -12.60-10.40 -17.70-14.60 -20.90-17.20 l-2.30-1.90 4.50-3.90 c 2.40-2.20 6.60-5.80 9.20-8.00 2.70-2.20 12.80-10.70 22.40-18.90 9.70-8.10 19.80-16.70 22.50-19.00 4.70-3.90 11.70-9.90 14.20-12.10 0.60-0.50 3.30-2.80 5.90-5.00 4.30-3.50 16.40-13.70 31.50-26.60 23.50-19.90 50.50-42.60 50.70-42.50 0.10,0.10 0.30,17.20 0.30,37.90 l 0.20,37.70 2.10,0.00 c 7.40,0.00 41.30-8.00 46.90-11.10 1.00-0.50 2.20-0.90 2.80-0.90 1.50,0.00 13.90-6.00 18.50-8.90 28.80-18.40
33.60-45.40 14.60-83.10 -6.60-13.10 -18.40-31.20 -29.20-44.50 -3.50-4.30 -21.50-25.20 -25.40-29.40
-2.20-2.40 -4.40-4.90 -5.00-5.50 -0.50-0.60 -6.40-6.70 -13.00-13.50 -13.50-13.90 -13.70-14.00 13.50,4.80
21.70,15.00 47.50,34.60 58.70,44.60 0.60,0.50 3.70,3.30 6.90,6.00 10.10,8.60 25.30,23.60 35.00,34.20 26.50,29.30 43.40,59.50 47.00,84.30 0.60,4.50 0.60,21.40 -0.10,25.40 -7.00,41.70 -51.00,78.50 -118.20,99.10 -18.60,5.70 -20.50,6.20
-25.80,7.40 -7.80,1.80 -8.50,1.90 -17.50,3.70 -4.70,0.90 -9.10,1.80 -9.70,2.00 -1.00,0.20 -1.20,9.30 -1.00,40.40 0.20,22.00 0.30,40.00 0.30,40.00 -0.10-0.10 -6.30-5.20 -13.90-11.50z"  />
<glyph unicode="&#xe008;" d="M 40.40,414.20 l-4.10-0.30 0.10-189.20 0.10-189.20 217.50,0.00 c 119.60-0.10 218.20,0.10 219.10,0.30 1.50,0.30 1.70,15.20 1.50,189.40 l-0.10,189.00 -215.00,0.20 c-118.20,0.00 -216.80,0.00 -219.10-0.20z m 398.10-208.20 c0.00-91.20 -0.30-136.00 -1.00-136.10 -1.40,0.00 -360.60,0.00 -362.50,0.00 -1.40,0.10 -1.60,14.60 -1.60,136.10 l0.00,136.00 182.60,0.00 182.50,0.00 0.00-136.00zM 246.20,272.80 c-8.40-10.80 -26.20-33.40 -60.20-76.40 -11.20-14.30 -26.50-33.50 -33.90-42.90 l-13.40-17.00 58.20-0.30 c 32.10-0.10 84.10-0.10 115.80,0.00 l 57.50,0.30 -13.90,17.50 c-7.60,9.60 -24.00,30.30 -36.30,46.00 -12.40,15.70 -23.00,29.20 -23.70,30.00 -1.70,2.20 -11.80,14.90 -27.20,34.50 -7.40,9.40
-13.70,17.40 -14.10,17.80 -0.40,0.50 -4.30-3.80 -8.80-9.50z"  />
<glyph unicode="&#xe009;" d="M 36.00,225.00 l0.00-189.00 219.50,0.00 219.50,0.00 0.00,189.00 0.00,189.00 -219.50,0.00 -219.50,0.00 0.00-189.00z m 403.00-19.00 l0.00-136.00 -183.00,0.00 -183.00,0.00 0.00,136.00 0.00,136.00 183.00,0.00 183.00,0.00 0.00-136.00zM 139.00,267.70 c0.00-1.10 115.00-145.80 115.70-145.60 0.60,0.20 113.10,142.20 114.90,145.10 0.30,0.40 -51.50,0.80 -115.00,0.80 -63.60,0.00 -115.60-0.20 -115.60-0.30z"  />
<glyph unicode="&#xe00a;" d="M 113.00,222.50 l0.00-203.50 99.70,0.00 c 94.80,0.00 99.50,0.10 98.10,1.80 -0.80,0.90 -3.30,3.90 -5.70,6.60
-2.30,2.80 -5.80,7.60 -7.70,10.80 l-3.50,5.80 -78.50,0.00 -78.40,0.00 0.00,178.50 0.00,178.50 71.60,0.00 71.60,0.00 3.90-2.20 c 6.70-3.70 10.80-12.00 13.00-26.10 1.40-9.00 0.60-34.70 -1.50-47.20 -0.90-4.90 -1.60-9.30 -1.60-9.60
0.00-0.30 4.20,0.20 9.30,1.20 30.00,5.80 56.10,4.20 67.30-4.10 8.10-5.90 7.90-3.80 8.20-62.70 l 0.30-52.30 11.90,0.00
12.00,0.00 0.00,65.80 0.00,65.70 -48.30,48.30 -48.20,48.20 -96.80,0.00 -96.70,0.00 0.00-203.50zM 376.30,176.60 c-40.30-7.70 -68.30-39.30 -70.90-80.10 -2.70-41.20 27.20-79.70 68.50-88.00 12.00-2.50 30.70-1.60 41.10,1.80 11.10,3.60 14.70,5.30 23.60,11.30 15.30,10.10 27.30,26.00 33.40,44.20
4.20,12.60 5.30,29.90 2.50,43.30 -5.40,26.70 -24.40,50.50 -48.90,61.30 -14.30,6.30 -35.00,8.90 -49.30,6.20z
m 29.70-45.60 l0.00-23.00 23.00,0.00 23.00,0.00 0.00-15.50 0.00-15.50 -23.00,0.00 -23.00,0.00 0.00-23.00 0.00-23.00
-15.50,0.00 -15.50,0.00 0.00,23.00 0.00,23.00 -23.00,0.00 -23.10,0.00 0.30,15.30 0.30,15.20 22.80,0.30 22.70,0.20 0.00,23.00 0.00,23.00
15.50,0.00 15.50,0.00 0.00-23.00z"  />
<glyph unicode="&#xe00b;" d="M 236.00,346.10 l0.00-59.10 -90.00,0.00 -90.00,0.00 0.00-63.50 0.00-63.50 90.00,0.00 90.00,0.00 0.00-59.50
0.00-59.40 110.10,90.80 c 60.50,50.00 110.10,91.10 110.20,91.30 0.20,0.50 -216.50,179.60 -219.00,181.20 -1.00,0.60
-1.30-11.40 -1.30-58.30z"  />
<glyph unicode="&#xe00c;" d="M 236.40,440.50 c-55.10-9.80 -97.60-54.10 -106.80-111.50 -1.30-7.70 -1.80-23.20 -1.90-58.50 l-0.20-37.00 -12.00-0.10 c-13.00-0.10 -18.00-1.20 -21.30-4.70 -5.20-5.60 -5.10-1.50 -4.90-110.30
l 0.20-101.00 2.50-3.70 c 1.30-2.00 4.20-4.60 6.30-5.80 l 3.90-2.10 153.60,0.00 c 114.40,0.00 154.50,0.30 156.70,1.20
3.80,1.40 7.20,4.60 9.30,8.50 1.40,2.70 1.60,13.90 1.60,102.40 0.10,63.30 -0.30,100.70 -0.90,103.00 -1.20,4.50 -3.00,7.00
-7.30,10.00 -3.00,2.10 -4.50,2.30 -16.80,2.50 l-13.60,0.10 -0.30,44.50 c-0.10,24.50 -0.50,45.40 -0.80,46.50 -0.30,1.10 -0.80,4.10 -1.10,6.60 -1.50,10.90 -7.10,28.10 -13.30,40.20 -8.40,16.70 -27.70,38.70 -42.60,48.60 -13.40,8.90 -32.70,17.40 -44.70,19.60 -14.30,2.70 -33.90,3.10 -45.60,1.00z m 34.90-61.40 c 11.30-2.90 20.70-8.30 29.20-16.50
10.50-10.40 16.50-20.50 20.70-35.30 2.10-7.50 2.20-9.50 2.30-50.80 l0.00-43.00 -67.30,0.00 -67.30-0.10 0.30,44.10 c 0.40,49.20 0.40,49.10 7.80,64.20 14.60,29.70 44.80,44.90 74.30,37.40z"  />
<glyph unicode="&#xe00d;" d="M 44.00,368.60 c0.00-0.60 210.90-181.00 212.00-181.40 0.80-0.30 204.90,171.70 212.50,178.90 l 3.00,2.90 -213.80,0.00 c-117.50,0.00 -213.70-0.20 -213.70-0.40zM 38.00,217.10 l0.00-123.10 218.50,0.00 218.50,0.00 0.00,122.10 c0.00,97.40 -0.30,121.90 -1.20,121.20 -0.70-0.40 -49.60-41.60 -108.70-91.60 -59.00-50.00 -107.90-91.00 -108.60-91.10 -0.70,0.00 -48.60,40.50 -106.60,90.00 -58.00,49.60 -106.90,91.40 -108.60,92.90 l-3.30,2.70 0.00-123.10z"  />
<glyph unicode="&#xe00e;" d="M 390.30,419.80 c-13.60-13.70 -24.70-25.30 -24.60-25.80 0.10-0.40 13.30-13.90 29.30-29.80
l 29.10-29.00 23.70,23.70 c 13.00,13.10 24.30,24.50 25.00,25.40 1.20,1.40 -2.40,5.30 -28.10,31.00 l-29.50,29.50
-24.90-25.00zM 211.20,241.00 l-126.40-126.60 -5.70-13.00 c-3.20-7.10 -7.20-16.00 -8.90-19.70 -1.80-3.80 -3.20-7.00 -3.20-7.20 0.00-0.20 -1.30-3.20 -2.90-6.70 -10.60-22.80 -27.10-60.20 -26.70-60.50 0.20-0.20
2.80,0.70 5.70,2.10 3.00,1.30 10.60,4.70 16.90,7.60 6.30,2.90 14.40,6.60 18.00,8.20 6.50,3.00 12.50,5.70 23.50,10.70 3.30,1.50 14.30,6.50 24.50,11.20 l 18.40,8.40 126.40,126.40 126.30,126.40 -13.30,13.40 -13.30,13.30 -21.80-21.70
c-11.90-12.00 -55.30-55.40 -96.30-96.40 l-74.60-74.60 -8.00,7.90 -8.00,8.00 3.30,3.50 c 1.90,1.90 45.20,45.30 96.30,96.40 l 93.00,93.00 -8.50,8.20 -8.40,8.20 -126.30-126.50z m-75.10-110.70 c 0.10-0.50 0.30-1.90 0.50-3.30 0.20-1.40 0.90-5.90 1.60-10.00 l 1.30-7.50 10.50-1.70 c 5.80-0.90 10.70-1.70 11.00-1.70 0.20-0.10 -4.50-5.10
-10.50-11.20 -10.50-10.60 -11.50-11.30 -23.30-17.00 -6.70-3.20 -12.40-5.90 -12.60-5.90 -0.20,0.00 -4.60-2.00 -9.70-4.30 -13.20-6.10 -13.20-6.20 -12.30-3.40 0.40,1.20 2.40,5.80 4.40,10.20 2.10,4.40 6.30,13.80 9.50,20.90 5.70,12.80 5.90,13.10 16.90,24.20 10.60,10.80 12.50,12.30 12.70,10.70z"  />
<glyph unicode="&#xe00f;" d="M 205.70,442.90 c-6.30-1.00 -16.20-5.80 -21.30-10.30 -9.60-8.30 -15.40-21.70 -15.40-35.50
l0.00-7.70 -29.70,0.10 c-33.30,0.00 -36.70-0.50 -42.40-6.40 -5.70-6.10 -5.90-7.40 -6.00-39.40 0.00-16.10 0.00-29.80 0.00-30.40 0.10-1.00 33.90-1.30 165.40-1.30 l 165.30,0.00 -0.10,30.80 c-0.10,29.10 -0.30,30.90 -2.20,34.70
-2.60,5.00 -5.70,7.90 -10.80,10.10 -3.40,1.50 -8.20,1.80 -34.00,1.90 -16.50,0.10 -30.30,0.30 -30.60,0.40 -0.30,0.00 -0.60,3.60 -0.70,7.90 -0.30,22.00 -14.20,39.80 -34.70,44.70 -5.80,1.40 -94.60,1.80 -102.80,0.40z m 70.90-29.90 c 25.80-0.10
26.20-0.20 29.60-2.50 4.40-3.00 6.50-8.20 6.40-15.50 l-0.10-5.50 -56.20,0.00 c-31.00,0.00 -56.30,0.30 -56.40,0.70
-1.10,7.90 0.60,14.90 4.40,18.60 4.30,4.20 8.00,4.80 29.60,4.50 9.10-0.10 28.30-0.20 42.70-0.30zM 125.40,284.10 c-0.20-0.20 -0.40-63.00 -0.40-139.60 l0.00-139.10 131.00,0.00 131.00,0.00 0.10,2.10 c 0.40,10.70 0.30,274.00 -0.20,275.30 -0.50,1.50 -9.50,1.70 -130.80,1.70 -71.70,0.00 -130.50-0.20 -130.70-0.40z m 73.30-42.40 c 1.70-0.90 4.20-3.30 5.50-5.40 l 2.30-3.80 0.00-83.60 c 0.10-46.00 -0.30-84.90 -0.70-86.50 -0.90-3.40 -4.30-7.60 -7.60-9.30 -5.20-2.80 -14.30-1.00 -18.40,3.50 -3.90,4.30 -3.90,5.50 -3.90,91.70 l0.00,83.80 2.20,3.90 c 4.00,7.00 13.10,9.60 20.60,5.70z m 63.00,0.80 c 4.10-1.70 6.10-3.60 8.30-7.90 1.20-2.40 1.50-14.70 1.50-85.50 0.00-45.40 -0.30-84.20 -0.80-86.10 -1.60-6.20 -7.70-11.00 -14.70-11.50 -2.20-0.10 -8.20,2.30 -10.30,4.30 -5.10,4.60 -4.90,1.40 -4.90,91.80 l0.00,84.40 2.30,4.00 c 2.40,4.10 8.40,8.00 12.70,8.00 1.20,0.00 3.90-0.70 5.90-1.50z m 67.60-1.20 c 1.60-1.00 3.90-3.60 5.00-5.70 2.00-3.90 2.10-5.50 2.20-86.50 0.00-45.40 -0.40-84.30 -0.90-86.30 -1.00-4.50 -7.40-10.70 -11.10-10.90 -1.40-0.10 -3.10-0.20 -3.70-0.30 -2.30-0.30 -7.20,1.60 -9.60,3.80 -5.80,5.10 -5.50,0.90 -5.50,90.60 0.00,45.40 0.30,84.10 0.60,86.00 1.90,9.70 13.90,14.60 23.00,9.30z"  />
<glyph unicode="&#xe010;" d="M 124.50,358.00 l-33.00-33.00 49.80-49.80 c 27.30-27.30 49.70-50.20 49.70-50.70 0.00-0.50
-22.40-23.40 -49.70-50.70 l-49.80-49.80 33.50-33.50 33.50-33.50 50.20,50.20 50.30,50.30 50.00-50.00
50.00-50.00 33.20,33.30 33.30,33.20 -50.00,50.00 -50.00,50.00 50.30,50.30 50.20,50.20 -33.50,33.50 -33.50,33.50 -49.80-49.80 c-27.30-27.30 -50.20-49.70 -50.70-49.70 -0.60,0.00 -23.30,22.30 -50.50,49.50 -27.20,27.20 -49.70,49.50 -50.00,49.50 -0.30,0.00 -15.40-14.90 -33.50-33.00z"  />
<glyph unicode="&#xe011;" d="M 248.70,443.40 c-0.10-0.10 -4.50-0.40 -9.70-0.70 -17.90-1.10 -38.10-5.30 -56.50-11.70 -10.40-3.60 -12.60-4.60 -25.80-11.10 -24.30-12.20 -49.20-31.40 -65.70-50.90 -2.50-2.80 -5.50-6.40 -6.80-7.90 -1.20-1.40 -3.50-4.40 -5.00-6.60 -1.50-2.20 -3.00-4.20 -3.30-4.50 -3.00-2.50 -15.90-25.80 -21.90-39.40 -4.20-9.40 -10.40-28.50 -11.40-35.10 -0.40-2.00 -0.80-4.00 -1.00-4.40 -0.30-0.30 -0.70-2.60 -1.10-5.10
-0.40-2.50 -0.80-4.70 -1.00-5.00 -0.30-0.50 -1.10-7.00 -2.40-19.60 -1.90-19.00 0.40-46.80 5.40-67.50 0.90-3.50
1.80-7.30 2.00-8.30 2.10-9.10 11.50-32.20 18.20-44.60 4.30-8.10 15.50-25.20 20.50-31.40 15.20-19.10
34.70-36.70 55.00-49.50 27.50-17.30 57.30-28.10 90.30-32.60 14.60-2.10 49.70-1.00 65.30,1.90 27.30,5.20
55.40,16.00 77.60,30.00 18.50,11.70 39.40,30.20 53.60,47.30 8.60,10.40 19.40,27.50 26.30,41.50 5.90,12.00 14.80,35.70 16.10,43.10 0.30,1.50 0.70,3.50 1.00,4.50 0.50,1.70 1.20,4.90 2.20,11.20 0.30,1.90 0.80,3.80 0.90,4.10 1.00,1.60 2.00,19.40
2.00,34.90 0.00,15.80 -0.60,24.90 -2.00,32.00 -0.30,1.40 -1.00,5.20 -1.60,8.50 -5.20,28.90 -18.90,60.60 -37.20,86.00
-37.20,51.70 -95.60,84.80 -158.70,90.10 -6.50,0.50 -24.90,1.10 -25.30,0.80z m 28.10-67.90 c 4.60-0.80 9.10-1.60
10.00-1.90 0.90-0.30 3.10-0.80 4.80-1.00 9.30-1.60 28.60-9.60 40.90-16.90 35.40-21.00 61.90-56.80 70.90-95.80 6.30-27.70 5.30-54.20 -3.10-81.40 -2.80-9.10 -14.90-34.50 -16.40-34.50 -1.10,0.00 -210.30,208.90
-209.80,209.50 0.20,0.10 2.90,1.70 5.90,3.40 17.40,9.90 37.30,16.60 55.50,18.70 2.80,0.30 5.10,0.70 5.30,0.90 1.00,0.90 29.00,0.10
36.00-1.00z m-44.10-175.30 c 56.80-56.80 103.30-103.70 103.30-104.10 0.00-1.50 -24.10-12.90 -33.50-16.00 -25.70-8.20 -50.10-9.70 -77.90-4.50 -5.40,1.00 -18.50,4.70 -21.00,6.00 -1.60,0.80 -3.30,1.40 -3.80,1.40
-1.70,0.00 -16.00,7.10 -23.70,11.80 -30.50,18.40 -55.00,49.40 -65.50,82.70 -5.90,18.40 -7.10,26.70 -7.10,47.50 0.00,15.20 0.70,22.30 3.00,32.70 3.40,14.90 8.80,28.70 16.40,42.00 2.90,5.20 3.70,6.00 5.00,5.00 0.80-0.70 48.00-47.70 104.80-104.50z"  />
<glyph unicode="&#xe012;" d="M 111.70,426.30 c-0.20-0.50 -0.30-91.90 -0.30-203.30 l 0.10-202.50 145.30-0.20 c 134.70-0.10 145.20,0.00 145.30,1.50 0.00,1.00 0.10,70.70 0.20,155.10 l 0.20,153.30 -48.40,48.40 -48.50,48.40 -96.70,0.00 c-53.20,0.00 -97.00-0.30 -97.20-0.70z m 171.10-26.30 c 6.60-3.70 11.10-12.10 13.00-24.00 1.40-9.10 0.70-38.50 -1.20-50.00 -0.30-1.40 -0.70-4.10 -1.00-6.10 l-0.60-3.70 3.80,0.90 c 2.00,0.50 5.70,1.10 8.20,1.50 2.50,0.30 4.70,0.70 5.00,0.90 1.30,0.80 19.70,1.90 29.50,1.80 21.00-0.20 34.00-6.20 37.30-17.10 0.90-2.70 1.20-39.80 1.20-131.30 0.00-121.00 -0.10-127.70
-1.70-128.00 -1.50-0.40 -237.00-0.30 -239.50,0.00 -0.80,0.10 -1.10,356.40 -0.40,357.20 0.20,0.20 32.30,0.40 71.30,0.30
l 70.90,0.00 4.20-2.40z"  />
<glyph unicode="&#xe013;" d="M 215.00,328.50 l0.00-62.50 -62.50,0.00 -62.50,0.00 0.00-42.00 0.00-42.00 62.50,0.00 62.50,0.00 0.00-62.50
0.00-62.50 42.00,0.00 42.00,0.00 0.00,62.50 0.00,62.50 62.50,0.00 62.50,0.00 0.00,42.00 0.00,42.00 -62.50,0.00 -62.50,0.00 0.00,62.50
0.00,62.50 -42.00,0.00 -42.00,0.00 0.00-62.50z"  />
<glyph unicode="&#xe014;" d="M 155.40,441.00 c-8.10-2.10 -19.60-7.60 -26.90-12.80 -6.40-4.60 -22.50-20.20 -22.50-21.80
0.00-1.10 90.70-219.40 91.50-220.20 0.20-0.20 2.20,3.30 4.50,7.70 8.30,15.90 22.80,29.40 36.70,34.30 5.80,2.00 8.70,2.30 19.80,2.30 12.00-0.10 13.70-0.30 22.50-3.30 20.30-7.00 41.30-21.20 65.50-44.20 14.30-13.70 22.40-19.80
32.00-24.60 12.70-6.20 19.60-7.70 32.50-7.10 12.20,0.50 22.30,3.70 33.70,10.40 7.70,4.60 22.30,17.00 26.50,22.50
l 2.70,3.60 -42.80,102.80 c-23.60,56.60 -44.30,106.30 -46.00,110.50 l-3.20,7.60 -6.20-6.40 c-20.30-21.20
-47.10-31.60 -72.90-28.30 -24.60,3.00 -46.70,15.30 -74.70,41.50 -16.80,15.70 -26.80,22.00 -40.90,25.60
-9.60,2.40 -22.30,2.40 -31.80-0.10zM 62.50,390.90 c-16.60-6.90 -21.00-9.20 -20.90-10.60 0.10-1.90 153.10-372.30 154.20-373.50
0.70-0.70 41.00,15.60 42.60,17.20 0.70,0.70 -152.50,373.40 -154.30,375.10 -0.30,0.40 -10.00-3.30 -21.60-8.20z"  />
<glyph unicode="&#xe015;" d="M 201.222,143.14  m0.00,0.00,-18.297-17.615 -20.596-19.799 -20.602,19.799 -18.276,17.615 -24.127-7.914 L 75.042,127.278 75.042-32.321 160.748,21.544 249.628-32.321 l 0.00,159.56 -24.301,7.987 -24.105,7.914 z m 101.178,170.319 22.253,37.061 -36.108,23.739 3.956,43.025 -42.834,5.692 -15.102,40.532 -41.04-13.471 -31.196,29.957 L 131.185,450.037 90.089,463.507 75.007,422.976 32.153,417.284 36.149,374.259 0.00,350.52 22.275,313.459 0.00,276.43 l 36.149-23.714 -3.995-43.063 42.854-5.672 15.083-40.496 41.095,13.426 31.144-29.955 31.196,29.955 41.04-13.426 15.102,40.496 42.834,5.672 -3.956,43.063 36.108,23.714 -22.253,37.028" horiz-adv-x="324.171322160149"  />
<glyph unicode="&#x20;" horiz-adv-x="256" />
<glyph class="hidden" unicode="&#xf000;" d="M0,480L 512 -32L0 -32 z" horiz-adv-x="0" />
</font>
</defs>
</svg>
